<svg width="480" height="73" viewBox="0 0 480 73" fill="none" xmlns="http://www.w3.org/2000/svg">
<path d="M4.48 14.712C9.42933 14.3707 13.7813 14.2 17.536 14.2C28.1173 14.2 33.408 17.9333 33.408 25.4C33.408 28.856 32.512 31.8853 30.72 34.488C29.7813 35.896 28.3307 37.0267 26.368 37.88C24.4053 38.6907 22.0373 39.096 19.264 39.096H9.792V59H4.48V14.712ZM17.6 14.84C15.1253 14.84 12.5227 14.9893 9.792 15.288V38.456H19.264C25.28 38.2 28.288 33.8907 28.288 25.528C28.288 22.1147 27.392 19.4907 25.6 17.656C23.808 15.7787 21.1413 14.84 17.6 14.84ZM42.287 43.384C42.287 48.6747 43.2043 52.5573 45.039 55.032C46.9163 57.5067 49.3697 58.744 52.399 58.744C56.6657 58.744 60.463 58.104 63.791 56.824L63.983 57.272C60.5697 58.5947 56.7083 59.256 52.399 59.256C48.1323 59.256 44.655 57.976 41.967 55.416C39.279 52.856 37.935 48.9093 37.935 43.576C37.935 38.2427 39.343 34.104 42.159 31.16C44.975 28.216 48.559 26.744 52.911 26.744C56.4097 26.744 59.3537 27.7893 61.743 29.88C64.1323 31.9707 65.327 35.064 65.327 39.16C65.327 39.3733 65.327 39.5867 65.327 39.8H42.479C42.351 40.952 42.287 42.1467 42.287 43.384ZM60.975 39.288C60.9323 35.192 60.143 32.1627 58.607 30.2C57.071 28.2373 55.087 27.256 52.655 27.256C50.223 27.256 48.047 28.3227 46.127 30.456C44.2497 32.5893 43.055 35.5333 42.543 39.288H60.975ZM69.5525 27.512V27H70.8965V20.6H75.3765V27H85.1685V27.512H75.3765V50.808C75.3765 53.5813 75.6752 55.5867 76.2725 56.824C76.9125 58.0613 78.2138 58.68 80.1765 58.68C82.1818 58.68 84.2085 58.2747 86.2565 57.464L86.4485 57.976C84.3152 58.7867 81.8618 59.192 79.0885 59.192C76.3578 59.192 74.3098 58.6373 72.9445 57.528C71.5792 56.376 70.8965 54.1147 70.8965 50.744V27.512H69.5525ZM116.43 59C113.528 59 111.544 58.4453 110.478 57.336C109.496 56.3973 109.006 55.5867 109.006 54.904V53.56C106.915 57.3573 103.566 59.256 98.9575 59.256C93.5815 59.256 90.5308 56.824 89.8055 51.96C89.7202 51.448 89.6775 50.936 89.6775 50.424C89.6775 49.8693 89.7628 49.272 89.9335 48.632C90.1042 47.992 90.5948 47.288 91.4055 46.52C93.0268 44.984 96.5895 44.0453 102.094 43.704C103.459 43.576 104.718 43.512 105.87 43.512C107.022 43.512 108.067 43.5547 109.006 43.64V33.016C108.92 32.9733 108.92 32.7813 109.006 32.44C109.091 32.056 109.006 31.5867 108.75 31.032C108.536 30.4347 108.238 29.8587 107.854 29.304C107.47 28.7493 106.787 28.28 105.806 27.896C104.824 27.4693 103.544 27.256 101.966 27.256C100.387 27.256 98.5308 27.5547 96.3975 28.152C94.3068 28.7067 92.7708 29.2613 91.7895 29.816L91.5335 29.368C95.3308 27.6187 99.1922 26.744 103.118 26.744C107.512 26.744 110.414 27.5333 111.822 29.112C112.931 30.3493 113.486 31.6507 113.486 33.016V54.456C113.486 55.6933 113.72 56.6533 114.19 57.336C114.702 57.976 115.214 58.3173 115.726 58.36L116.43 58.488H118.414V59H116.43ZM99.9815 58.744C102.243 58.744 104.27 57.976 106.062 56.44C107.896 54.8613 108.878 53.3467 109.006 51.896V44.152C107.854 44.0667 106.68 44.024 105.486 44.024C104.334 44.024 103.182 44.088 102.03 44.216C98.7868 44.6 96.6748 45.3253 95.6935 46.392C94.7122 47.4587 94.2215 48.9307 94.2215 50.808C94.2215 51.1493 94.2428 51.5333 94.2855 51.96C94.6695 56.4827 96.5682 58.744 99.9815 58.744ZM148.495 59C146.746 59 145.402 58.616 144.463 57.848C143.567 57.08 143.098 56.312 143.055 55.544L142.991 54.456V34.36C142.991 30.9893 142.116 28.8347 140.367 27.896C139.471 27.4693 138.362 27.256 137.039 27.256C134.308 27.256 131.855 28.344 129.679 30.52C127.503 32.6533 126.415 34.5733 126.415 36.28V59H121.935V27H126.415V34.296C127.14 32.4613 128.484 30.7547 130.447 29.176C132.41 27.5547 134.564 26.744 136.911 26.744C139.258 26.744 141.156 26.9787 142.607 27.448C144.1 27.8747 145.188 28.4933 145.871 29.304C146.938 30.6267 147.471 32.3333 147.471 34.424V54.456C147.471 55.6933 147.706 56.6533 148.175 57.336C148.687 57.976 149.199 58.3173 149.711 58.36L150.415 58.488H152.399V59H148.495ZM162.151 59C160.401 59 159.057 58.616 158.119 57.848C157.223 57.08 156.753 56.312 156.711 55.544L156.647 54.456V27H161.127V54.456C161.127 55.6933 161.361 56.6533 161.831 57.336C162.343 57.976 162.833 58.3173 163.303 58.36L164.071 58.488H166.055V59H162.151ZM157.031 19.832C156.519 19.32 156.263 18.68 156.263 17.912C156.263 17.144 156.519 16.504 157.031 15.992C157.543 15.4373 158.183 15.16 158.951 15.16C159.719 15.16 160.359 15.4373 160.871 15.992C161.425 16.504 161.703 17.144 161.703 17.912C161.703 18.68 161.425 19.32 160.871 19.832C160.359 20.344 159.719 20.6 158.951 20.6C158.183 20.6 157.543 20.344 157.031 19.832Z" fill="black"/>
<path d="M263.48 14.712C268.429 14.3707 272.781 14.2 276.536 14.2C287.117 14.2 292.408 17.9333 292.408 25.4C292.408 28.856 291.512 31.8853 289.72 34.488C288.781 35.896 287.331 37.0267 285.368 37.88C283.405 38.6907 281.037 39.096 278.264 39.096H268.792V59H263.48V14.712ZM276.6 14.84C274.125 14.84 271.523 14.9893 268.792 15.288V38.456H278.264C284.28 38.2 287.288 33.8907 287.288 25.528C287.288 22.1147 286.392 19.4907 284.6 17.656C282.808 15.7787 280.141 14.84 276.6 14.84ZM304.088 59C302.339 59 300.995 58.616 300.056 57.848C299.16 57.08 298.691 56.312 298.648 55.544L298.584 54.456V27H303.064V54.456C303.064 55.6933 303.299 56.6533 303.768 57.336C304.28 57.976 304.771 58.3173 305.24 58.36L306.008 58.488H307.992V59H304.088ZM298.968 19.832C298.456 19.32 298.2 18.68 298.2 17.912C298.2 17.144 298.456 16.504 298.968 15.992C299.48 15.4373 300.12 15.16 300.888 15.16C301.656 15.16 302.296 15.4373 302.808 15.992C303.363 16.504 303.64 17.144 303.64 17.912C303.64 18.68 303.363 19.32 302.808 19.832C302.296 20.344 301.656 20.6 300.888 20.6C300.12 20.6 299.48 20.344 298.968 19.832ZM338.433 59C336.683 59 335.339 58.616 334.401 57.848C333.505 57.08 333.035 56.312 332.993 55.544L332.929 54.456V34.36C332.929 30.9893 332.054 28.8347 330.305 27.896C329.409 27.4693 328.299 27.256 326.977 27.256C324.246 27.256 321.793 28.344 319.617 30.52C317.441 32.6533 316.353 34.5733 316.353 36.28V59H311.873V27H316.353V34.296C317.078 32.4613 318.422 30.7547 320.385 29.176C322.347 27.5547 324.502 26.744 326.849 26.744C329.195 26.744 331.094 26.9787 332.545 27.448C334.038 27.8747 335.126 28.4933 335.809 29.304C336.875 30.6267 337.409 32.3333 337.409 34.424V54.456C337.409 55.6933 337.643 56.6533 338.113 57.336C338.625 57.976 339.137 58.3173 339.649 58.36L340.353 58.488H342.337V59H338.433ZM345.24 27.512V27H346.584V20.6H351.064V27H360.856V27.512H351.064V50.808C351.064 53.5813 351.363 55.5867 351.96 56.824C352.6 58.0613 353.901 58.68 355.864 58.68C357.869 58.68 359.896 58.2747 361.944 57.464L362.136 57.976C360.003 58.7867 357.549 59.192 354.776 59.192C352.045 59.192 349.997 58.6373 348.632 57.528C347.267 56.376 346.584 54.1147 346.584 50.744V27.512H345.24ZM392.117 59C389.216 59 387.232 58.4453 386.165 57.336C385.184 56.3973 384.693 55.5867 384.693 54.904V53.56C382.602 57.3573 379.253 59.256 374.645 59.256C369.269 59.256 366.218 56.824 365.493 51.96C365.408 51.448 365.365 50.936 365.365 50.424C365.365 49.8693 365.45 49.272 365.621 48.632C365.792 47.992 366.282 47.288 367.093 46.52C368.714 44.984 372.277 44.0453 377.781 43.704C379.146 43.576 380.405 43.512 381.557 43.512C382.709 43.512 383.754 43.5547 384.693 43.64V33.016C384.608 32.9733 384.608 32.7813 384.693 32.44C384.778 32.056 384.693 31.5867 384.437 31.032C384.224 30.4347 383.925 29.8587 383.541 29.304C383.157 28.7493 382.474 28.28 381.493 27.896C380.512 27.4693 379.232 27.256 377.653 27.256C376.074 27.256 374.218 27.5547 372.085 28.152C369.994 28.7067 368.458 29.2613 367.477 29.816L367.221 29.368C371.018 27.6187 374.88 26.744 378.805 26.744C383.2 26.744 386.101 27.5333 387.509 29.112C388.618 30.3493 389.173 31.6507 389.173 33.016V54.456C389.173 55.6933 389.408 56.6533 389.877 57.336C390.389 57.976 390.901 58.3173 391.413 58.36L392.117 58.488H394.101V59H392.117ZM375.669 58.744C377.93 58.744 379.957 57.976 381.749 56.44C383.584 54.8613 384.565 53.3467 384.693 51.896V44.152C383.541 44.0667 382.368 44.024 381.173 44.024C380.021 44.024 378.869 44.088 377.717 44.216C374.474 44.6 372.362 45.3253 371.381 46.392C370.4 47.4587 369.909 48.9307 369.909 50.808C369.909 51.1493 369.93 51.5333 369.973 51.96C370.357 56.4827 372.256 58.744 375.669 58.744ZM409.847 29.752V28.408C407.927 29.176 406.177 30.7333 404.599 33.08C403.02 35.384 402.188 37.56 402.103 39.608V59H397.623V27H402.103V37.176C402.785 34.7013 404.087 32.376 406.007 30.2C407.927 27.9813 410.103 26.8293 412.535 26.744H412.791C413.644 26.744 414.348 27.0427 414.903 27.64C415.5 28.1947 415.799 28.8987 415.799 29.752C415.799 30.6053 415.5 31.3093 414.903 31.864C414.348 32.4187 413.644 32.696 412.791 32.696C411.937 32.696 411.233 32.4187 410.679 31.864C410.124 31.3093 409.847 30.6053 409.847 29.752Z" fill="black"/>
<path d="M186 6.0625C246.766 6.0625 232.643 46.3447 232.707 52.5654L243 62.9375H239.692L230.735 53.8984C225.773 54.4316 214.907 58.2783 203.456 49.2012C191.98 40.124 192.616 29.2568 186 6.0625ZM196.14 11.9023C189.817 8.91895 195.479 13.0703 195.479 13.0703C201.23 17.0312 203.876 22.4268 206.955 28.292C210.963 35.9346 217.006 46.0273 225.302 49.582C233.572 53.1367 229.653 51.1689 226.065 48.5029C222.477 45.8115 217.388 37.458 214.487 31.9736C210.454 24.3564 206.726 16.917 196.14 11.9023Z" fill="#5B8C51"/>
</svg>
