<svg width="57" height="65" viewBox="0 0 57 65" fill="none" xmlns="http://www.w3.org/2000/svg">
<path d="M0 4.0625C60.7661 4.0625 46.6433 44.3447 46.7069 50.5654L57 60.9375H53.692L44.7348 51.8984C39.7728 52.4316 28.9071 56.2783 17.4563 47.2012C5.97991 38.124 6.61607 27.2568 0 4.0625ZM10.1404 9.90234C3.81696 6.91895 9.4788 11.0703 9.4788 11.0703C15.2297 15.0312 17.8761 20.4268 20.9551 26.292C24.9629 33.9346 31.0065 44.0273 39.302 47.582C47.5721 51.1367 43.6534 49.1689 40.0654 46.5029C36.4775 43.8115 31.3882 35.458 28.4873 29.9736C24.454 22.3564 20.7261 14.917 10.1404 9.90234Z" fill="#5B8C51"/>
</svg>
